Coordinates
version=1
nRows=21
nColumns=12
inDegrees=yes

Units are S.I. units (second, meters, Newtons, ...)
Angles are in degrees

endheader
time	SC_y	SC_z	SC_x	AC_y	AC_z	AC_x	GH_y	GH_z	GH_yy	EL_x	PS_y
       0.0              -42.19          39.87          19.52           54.0         -3.214          -6.87          131.0          85.41         -138.4          134.3          70.26
    0.0161              -42.19          39.87          19.53           54.0         -3.215         -6.871          131.0          85.41         -138.3          134.2          70.26
    0.0322              -42.19          39.87          19.54           54.0         -3.216         -6.872          131.0           85.4         -138.3          134.2          70.26
    0.0483              -42.19          39.86          19.55          53.99         -3.217         -6.873          130.9          85.39         -138.3          134.2          70.26
    0.0644              -42.19          39.86          19.56          53.99         -3.219         -6.874          130.9          85.39         -138.2          134.2          70.26
   0.08051              -42.19          39.86          19.56          53.99          -3.22         -6.875          130.8          85.38         -138.2          134.2          70.26
   0.09661              -42.19          39.86          19.57          53.98         -3.221         -6.876          130.8          85.37         -138.2          134.2          70.26
    0.1127               -42.2          39.85          19.58          53.98         -3.223         -6.877          130.7          85.36         -138.1          134.2          70.27
    0.1288               -42.2          39.85           19.6          53.97         -3.225         -6.879          130.7          85.36         -138.1          134.2          70.27
    0.1449               -42.2          39.85          19.61          53.97         -3.227          -6.88          130.6          85.35         -138.0          134.2          70.27
     0.161               -42.2          39.84          19.62          53.96         -3.229         -6.882          130.6          85.34         -138.0          134.1          70.27
    0.1771               -42.2          39.84          19.63          53.96         -3.231         -6.883          130.5          85.33         -137.9          134.1          70.27
    0.1932               -42.2          39.84          19.65          53.95         -3.233         -6.885          130.4          85.32         -137.8          134.1          70.27
    0.2093              -42.21          39.83          19.66          53.94         -3.236         -6.887          130.3           85.3         -137.8          134.1          70.27
    0.2254              -42.21          39.83          19.68          53.94         -3.238         -6.889          130.3          85.29         -137.7          134.1          70.28
    0.2415              -42.21          39.82           19.7          53.93         -3.241         -6.892          130.2          85.28         -137.6          134.0          70.28
    0.2576              -42.21          39.82          19.72          53.92         -3.245         -6.894          130.1          85.26         -137.5          134.0          70.28
    0.2737              -42.22          39.81          19.74          53.91         -3.248         -6.897          130.0          85.24         -137.4          134.0          70.28
    0.2898              -42.22          39.81          19.77           53.9         -3.252           -6.9          129.8          85.22         -137.3          134.0          70.28
    0.3059              -42.22           39.8          19.79          53.89         -3.256         -6.903          129.7           85.2         -137.2          133.9          70.29
     0.322              -42.23          39.79          19.82          53.88         -3.261         -6.906          129.6          85.18         -137.1          133.9          70.29
